<?xml version="1.0" encoding="UTF-8"?>
<svg xmlns="http://www.w3.org/2000/svg" xmlns:xlink="http://www.w3.org/1999/xlink" width="40px" height="40px" viewBox="0 0 40 40" version="1.1">
<g id="surface1">
<path style=" stroke:none;fill-rule:nonzero;fill:rgb(16.862745%,25.490196%,30.196078%);fill-opacity:1;" d="M 20 0 C 8.953125 0 0 8.953125 0 20 C 0 31.046875 8.953125 40 20 40 C 31.046875 40 40 31.046875 40 20 C 40 8.953125 31.042969 0 20 0 Z M 25.601562 35.234375 C 25.488281 33.671875 25.359375 31.730469 25.351562 30.949219 C 25.300781 30.34375 25.234375 28.8125 23.78125 27.832031 C 29.558594 27.351562 32.304688 24.15625 32.503906 19.9375 C 32.667969 17.535156 31.714844 15.421875 30.015625 13.71875 C 30.105469 11.894531 29.960938 9.734375 29.84375 8.785156 C 28.542969 8.410156 25.503906 10.011719 24.65625 10.699219 C 22.867188 10.003906 18.484375 9.761719 15.824219 10.699219 C 13.933594 9.371094 11.785156 8.550781 10.613281 8.78125 C 9.535156 11.175781 10.230469 13.441406 10.441406 13.710938 C 9.046875 14.984375 7.105469 16.550781 7.632812 19.832031 C 8.480469 24.644531 11.863281 27.238281 17.3125 27.871094 C 16.152344 28.109375 15.953125 28.976562 15.855469 29.355469 C 12.199219 30.863281 11.152344 28.421875 10.6875 27.785156 C 9.152344 25.882812 7.773438 26.433594 7.6875 26.464844 C 7.605469 26.496094 7.542969 26.613281 7.550781 26.671875 C 7.628906 27.082031 8.464844 27.5 8.507812 27.53125 C 9.640625 28.378906 10.0625 29.902344 10.320312 30.339844 C 11.945312 33.011719 15.726562 31.902344 15.761719 31.925781 C 15.765625 32.160156 15.734375 34.128906 15.714844 35.660156 C 8.820312 33.777344 3.75 27.488281 3.75 20 C 3.75 11.023438 11.023438 3.75 20 3.75 C 28.976562 3.75 36.25 11.023438 36.25 20 C 36.25 27.003906 31.8125 32.953125 25.601562 35.234375 Z M 25.601562 35.234375 "/>
</g>
</svg>
